PathFileType  4	(X/Y/Z) C:\Users\antoi\Documents\MyRepositories\mobilecap\ResultsAnalysis
DataRate	CameraRate	NumFrames	NumMarkers	Units	OrigDataRate	OrigDataStartFrame	OrigNumFrames
100.0	100.0	4	51	mm	100.0	108	143
Frame#	Time	r_knee			r_shank_antsup			r_ankle			r_calc			r_5meta			r_toe			L_knee			L_shank_antsup			L_ankle			L_calc			L_5meta			L_toe			r_sh2			r_sh3			r_sh4			L_sh2			L_sh3			r_thigh1			r_thigh2			r_thigh3			r_thigh4			r_thigh5			L_thigh1			L_thigh2			L_thigh3			L_thigh4			r.ASIS			r.PSIS			L.ASIS			L.PSIS			C7			R_Shoulder			L_Shoulder			R_Sternum			L_Sternum			R_humerus			R_elbow_med			R_elbow_lat			R_forearm			R_wrist_radius			R_wrist_ulna			L_humerus			L_elbow_med			L_elbow_lat			L_forearm			L_wrist_radius			L_wrist_ulna			R_HJC			L_HJC			R_HJC_reg			L_HJC_reg			
		X1	Y1	Z1	X2	Y2	Z2	X3	Y3	Z3	X4	Y4	Z4	X5	Y5	Z5	X6	Y6	Z6	X7	Y7	Z7	X8	Y8	Z8	X9	Y9	Z9	X10	Y10	Z10	X11	Y11	Z11	X12	Y12	Z12	X13	Y13	Z13	X14	Y14	Z14	X15	Y15	Z15	X16	Y16	Z16	X17	Y17	Z17	X18	Y18	Z18	X19	Y19	Z19	X20	Y20	Z20	X21	Y21	Z21	X22	Y22	Z22	X23	Y23	Z23	X24	Y24	Z24	X25	Y25	Z25	X26	Y26	Z26	X27	Y27	Z27	X28	Y28	Z28	X29	Y29	Z29	X30	Y30	Z30	X31	Y31	Z31	X32	Y32	Z32	X33	Y33	Z33	X34	Y34	Z34	X35	Y35	Z35	X36	Y36	Z36	X37	Y37	Z37	X38	Y38	Z38	X39	Y39	Z39	X40	Y40	Z40	X41	Y41	Z41	X42	Y42	Z42	X43	Y43	Z43	X44	Y44	Z44	X45	Y45	Z45	X46	Y46	Z46	X47	Y47	Z47	X48	Y48	Z48	X49	Y49	Z49	X50	Y50	Z50	X51	Y51	Z51	

108	1.07000000	1267.94706	508.16368	-79.65092	1321.94460	458.04561	-96.93527	1351.94267	112.30893	-102.90564	1293.06591	67.20277	-138.70066	1470.40552	76.94836	-80.25933	1506.00837	123.22087	-133.64409	1018.93166	493.90746	-348.96248	1027.58781	394.34737	-349.07783	895.53645	108.60132	-309.06813	819.81606	76.18507	-263.86246	991.73694	39.25041	-348.90120	1033.00517	57.53517	-292.77139	1329.66977	343.45067	-75.25816	1243.45119	449.78656	-68.03094	1254.12106	337.86297	-68.07927	939.52612	424.62012	-353.30558	911.97514	304.59230	-352.92310	1207.66328	823.52627	-50.84017	1244.82036	716.55165	-60.73322	1200.94670	676.57607	-26.61930	1104.05702	783.17263	-28.00211	1144.88445	674.63897	-38.65836	990.78388	768.08337	-369.80245	978.08135	630.03754	-345.08683	1102.90635	749.16975	-404.83069	1085.05792	616.62006	-373.09866	1183.90647	964.61707	-97.50561	995.03853	1005.73255	-167.07688	1188.44942	940.21196	-346.18563	987.56610	1010.27385	-267.95356	998.13624	1412.96313	-258.48905	1093.04848	1387.29686	-74.86748	1090.94099	1372.45602	-432.68683	1137.80921	1383.31053	-233.13041	1143.42527	1382.52881	-274.80502	1094.49333	1254.26968	-4.71994	1030.06565	1044.71487	-34.05126	1043.68412	1064.95148	31.86472	1117.95982	946.74684	60.50695	1156.53641	817.68391	77.37929	1128.97294	811.14974	98.44786	1138.46897	1266.06983	-488.71370	1174.81491	1028.78741	-436.92507	1194.40959	1059.77607	-509.12573	1298.39934	1009.58356	-498.28567	1411.94876	897.76927	-495.05330	1394.43131	883.97630	-520.70629	1104.86282	886.46479	-111.98471	1099.87787	875.53933	-318.10669	1118.25143	876.00614	-130.14676	1106.07914	883.40359	-294.47316	
109	1.08000000	1274.84706	504.69039	-79.85566	1331.54457	457.56060	-97.07229	1378.64214	113.29510	-102.02629	1322.24291	64.85863	-137.16335	1498.98314	84.00763	-79.61172	1531.96079	132.01718	-133.27850	1024.22805	493.32690	-348.90925	1032.01472	393.68627	-349.23843	896.25070	109.45730	-309.24426	820.29813	77.43140	-264.04319	991.94175	39.16260	-349.03430	1033.35802	57.34211	-292.94466	1344.61774	343.54645	-75.01911	1253.22257	445.74603	-68.57023	1269.56421	334.26458	-68.27837	944.15016	425.02668	-353.37716	915.15932	305.25943	-353.07807	1216.20736	819.48357	-49.46825	1252.01991	711.87305	-59.85577	1207.26162	672.49051	-26.45585	1111.50344	780.62037	-27.98627	1151.26627	671.35707	-39.45893	999.87155	768.32816	-369.82295	985.28792	629.97931	-345.00809	1111.59400	747.73656	-404.64062	1091.96947	615.47824	-372.94187	1194.98024	962.32065	-96.59792	1006.04236	1003.64038	-166.06693	1199.31456	938.09589	-345.30394	998.43882	1008.39510	-266.96994	1008.92384	1410.83782	-257.57573	1104.04158	1385.34314	-73.92071	1101.95882	1370.35351	-431.81674	1148.70696	1381.42204	-232.29535	1154.27479	1380.60252	-273.89871	1105.15920	1252.28954	-3.81606	1040.29169	1042.87741	-33.47719	1053.46349	1063.15736	32.48069	1126.54610	944.56364	62.06494	1163.94457	815.11876	79.63335	1136.32470	808.95566	100.84170	1150.19131	1264.36632	-487.78489	1188.92501	1027.43011	-436.16237	1208.50000	1058.74641	-508.25124	1313.36618	1010.76232	-496.49780	1429.35064	901.70466	-492.06538	1412.42983	887.39477	-517.78579	1115.77663	884.26177	-111.12656	1110.66899	873.51511	-317.25463	1129.29357	873.63297	-129.31980	1116.91302	881.37489	-293.61841	
110	1.09000000	1282.22220	501.47723	-79.98710	1341.08178	456.88068	-97.16365	1402.64759	114.49355	-101.17422	1348.51233	63.12889	-135.66908	1524.38155	90.63974	-78.80914	1555.00040	139.97531	-132.81346	1029.92839	492.68014	-348.83191	1036.77580	392.94237	-349.33480	896.96584	110.50291	-309.46140	820.84825	78.88960	-264.27933	992.14660	39.06905	-349.17102	1033.83016	57.15509	-293.15030	1358.68959	343.55336	-74.72837	1263.09327	442.05529	-68.91910	1284.22184	331.09485	-68.34628	949.18588	425.45819	-353.42006	918.67780	305.98397	-353.23535	1224.79715	815.59718	-47.98453	1259.51368	707.46961	-58.80571	1213.90714	668.58180	-26.16672	1119.12713	778.11525	-28.07762	1157.97316	668.26833	-40.22511	1009.17364	768.50234	-369.78556	992.83140	629.81548	-344.84483	1120.45707	746.25834	-404.45673	1099.20275	614.27040	-372.82022	1206.18186	959.88661	-95.70170	1017.14015	1001.51319	-164.94216	1210.21167	935.91922	-344.48034	1009.42186	1006.46736	-265.87991	1019.78698	1408.63681	-256.50632	1115.09363	1383.29331	-72.81360	1112.98956	1368.15917	-430.83273	1159.65001	1379.51367	-231.31710	1165.18778	1378.67401	-272.85226	1115.95552	1250.18146	-2.81806	1050.75981	1040.87906	-32.81560	1063.52344	1061.23651	33.20337	1135.39928	942.23592	63.64737	1171.57182	812.39672	81.84801	1143.91290	806.59870	103.25157	1161.88168	1262.50300	-486.69453	1202.78045	1025.90245	-435.21869	1222.31204	1057.54040	-507.19480	1327.96442	1011.66761	-494.58363	1446.15261	905.28482	-488.99635	1429.82635	890.46548	-514.76090	1126.80474	881.95013	-110.26780	1121.47364	871.44858	-316.40209	1140.35844	871.20441	-128.51079	1127.79537	879.26847	-292.80903	
111	1.10000000	1290.26996	498.57891	-80.02263	1350.69452	455.92071	-97.16703	1423.58299	115.46204	-100.47022	1371.41398	61.67591	-134.39443	1546.26716	96.17024	-77.84489	1574.95056	146.44724	-132.17639	1036.09346	491.97617	-348.70962	1041.90750	392.11981	-349.35541	897.70401	111.79131	-309.70506	821.47076	80.60626	-264.55806	992.34521	38.98065	-349.31045	1034.40349	56.95485	-293.40122	1371.85910	343.26312	-74.40068	1273.09310	438.73079	-69.06313	1297.94542	328.29164	-68.29755	954.67938	425.90023	-353.42246	922.55618	306.77302	-353.37869	1233.65749	812.06068	-46.44893	1267.57047	703.55867	-57.66931	1221.21187	665.01692	-25.78409	1127.22091	775.71253	-28.23686	1165.38443	665.48972	-40.87992	1018.69624	768.54256	-369.61143	1000.72891	629.55783	-344.56564	1129.52809	744.74655	-404.25472	1106.79808	613.00119	-372.70223	1217.49793	957.34490	-94.82451	1028.33247	999.40270	-163.70789	1221.13310	933.72443	-343.72511	1020.51641	1004.53499	-264.68335	1030.72663	1406.40487	-255.29008	1126.19628	1381.18518	-71.55734	1124.04482	1365.93061	-429.73781	1170.65298	1377.62270	-230.19534	1176.18331	1376.78414	-271.66775	1126.86754	1247.98079	-1.73504	1061.46534	1038.76245	-32.07070	1073.86558	1059.22398	34.02513	1144.53411	939.80008	65.24225	1179.43078	809.55769	84.01693	1151.73385	804.12862	105.61273	1173.51409	1260.51737	-485.44782	1216.35934	1024.24101	-434.08345	1235.84035	1056.20315	-505.94953	1342.18590	1012.31238	-492.53342	1462.35335	908.48878	-485.84984	1446.58889	893.16827	-511.64762	1137.93530	879.56659	-109.41798	1132.27986	869.38533	-315.55869	1151.42598	868.77361	-127.72135	1138.70624	877.12622	-292.04868	
